<svg xmlns="http://www.w3.org/2000/svg" viewBox="0 0 240 240" width="24" height="24">
  <g transform="translate(0,240) scale(0.1,-0.1)" fill="currentColor">
    <path d="M1395 1006 c62 -29 107 -76 136 -141 20 -43 23 -71 27 -212 l4 -163 -362 0 -362 0 4 168 c3 153 6 171 28 216 30 59 96 119 153 140 29 10 85 15 182 15 127 1 145 -1 190 -23z m357 -676 c161 -19 287 -79 403 -195 324 -324 251 -855 -150 -1080 -33 -18 -89 -44 -125 -56 -65 -23 -68 -24 -650 -27 -659 -3 -667 -3 -808 68 -174 88 -298 237 -357 430 -25 83 -30 230 -11 320 21 102 91 241 161 317 116 129 269 204 460 226 72 9 998 6 1077 -3z"/>
    <path d="M649 752 c-46 -23 -58 -62 -58 -195 -1 -121 12 -166 55 -186 68 -31 136 4 148 77 9 59 7 203 -5 245 -17 61 -81 88 -140 59z"/>
    <path d="M1165 761 c-11 -5 -29 -19 -40 -31 -18 -19 -20 -39 -23 -166 l-3 -144 29 -30 c23 -22 40 -30 67 -30 87 0 105 36 105 209 0 129 0 131 -27 160 -30 32 -76 45 -108 32z"/>
    <path d="M1665 756 c-51 -22 -60 -53 -60 -203 l0 -135 33 -29 c62 -55 150 -28 166 52 12 60 7 228 -8 264 -22 51 -79 73 -131 51z"/>
  </g>
</svg>
